<mxfile host="app.diagrams.net" agent="Mozilla/5.0 (Windows NT 10.0; Win64; x64) AppleWebKit/537.36 (KHTML, like Gecko) Chrome/133.0.0.0 Safari/537.36" version="26.0.11">
  <diagram name="Page-1" id="ZMuajjhXKuEFjqfc3QQC">
    <mxGraphModel dx="1461" dy="641" grid="1" gridSize="10" guides="1" tooltips="1" connect="1" arrows="1" fold="1" page="1" pageScale="1" pageWidth="827" pageHeight="1169" math="0" shadow="0">
      <root>
        <mxCell id="0" />
        <mxCell id="1" parent="0" />
        <mxCell id="qYMxIyd04kvtuVdoY1f4-1" value="&lt;font style=&quot;font-size: 14px;&quot;&gt;&lt;b&gt;AWS EKS Deployment&lt;/b&gt;&lt;/font&gt;" style="rounded=0;whiteSpace=wrap;html=1;" parent="1" vertex="1">
          <mxGeometry x="330" y="10" width="190" height="60" as="geometry" />
        </mxCell>
        <mxCell id="SwI8XjTKnVOE_scIcT7k-1" value="&lt;b&gt;App&lt;/b&gt;" style="rounded=1;whiteSpace=wrap;html=1;" vertex="1" parent="1">
          <mxGeometry x="100" y="140" width="60" height="40" as="geometry" />
        </mxCell>
        <mxCell id="SwI8XjTKnVOE_scIcT7k-2" value="&lt;b&gt;Infra&lt;/b&gt;" style="rounded=1;whiteSpace=wrap;html=1;" vertex="1" parent="1">
          <mxGeometry x="590" y="150" width="70" height="40" as="geometry" />
        </mxCell>
        <mxCell id="SwI8XjTKnVOE_scIcT7k-4" value="&lt;b&gt;Patient Service&lt;/b&gt;" style="rounded=1;whiteSpace=wrap;html=1;" vertex="1" parent="1">
          <mxGeometry x="10" y="260" width="100" height="40" as="geometry" />
        </mxCell>
        <mxCell id="SwI8XjTKnVOE_scIcT7k-5" value="&lt;b&gt;Appointment Service&lt;/b&gt;" style="rounded=1;whiteSpace=wrap;html=1;" vertex="1" parent="1">
          <mxGeometry x="160" y="260" width="120" height="40" as="geometry" />
        </mxCell>
        <mxCell id="SwI8XjTKnVOE_scIcT7k-6" value="&lt;b&gt;ECR Repository&lt;/b&gt;" style="rounded=1;whiteSpace=wrap;html=1;" vertex="1" parent="1">
          <mxGeometry x="100" y="350" width="120" height="60" as="geometry" />
        </mxCell>
        <mxCell id="SwI8XjTKnVOE_scIcT7k-7" value="&lt;b&gt;VPC&lt;/b&gt;" style="rounded=1;whiteSpace=wrap;html=1;" vertex="1" parent="1">
          <mxGeometry x="370" y="260" width="50" height="40" as="geometry" />
        </mxCell>
        <mxCell id="SwI8XjTKnVOE_scIcT7k-8" value="&lt;b&gt;ECR&lt;/b&gt;" style="rounded=1;whiteSpace=wrap;html=1;" vertex="1" parent="1">
          <mxGeometry x="460" y="260" width="60" height="40" as="geometry" />
        </mxCell>
        <mxCell id="SwI8XjTKnVOE_scIcT7k-9" value="&lt;b&gt;EKS&lt;/b&gt;" style="rounded=1;whiteSpace=wrap;html=1;" vertex="1" parent="1">
          <mxGeometry x="560" y="260" width="60" height="40" as="geometry" />
        </mxCell>
        <mxCell id="SwI8XjTKnVOE_scIcT7k-10" value="&lt;b&gt;IAM&lt;/b&gt;" style="rounded=1;whiteSpace=wrap;html=1;" vertex="1" parent="1">
          <mxGeometry x="650" y="255" width="50" height="50" as="geometry" />
        </mxCell>
        <mxCell id="SwI8XjTKnVOE_scIcT7k-12" value="&lt;b&gt;public/private&lt;/b&gt;&lt;div&gt;&lt;b&gt;subnets&lt;/b&gt;&lt;/div&gt;" style="rounded=1;whiteSpace=wrap;html=1;" vertex="1" parent="1">
          <mxGeometry x="310" y="370" width="80" height="60" as="geometry" />
        </mxCell>
        <mxCell id="SwI8XjTKnVOE_scIcT7k-14" value="&lt;b&gt;IGW&lt;/b&gt;" style="rounded=1;whiteSpace=wrap;html=1;" vertex="1" parent="1">
          <mxGeometry x="414" y="370" width="56" height="60" as="geometry" />
        </mxCell>
        <mxCell id="SwI8XjTKnVOE_scIcT7k-15" value="&lt;b&gt;NAT&lt;/b&gt;" style="rounded=1;whiteSpace=wrap;html=1;" vertex="1" parent="1">
          <mxGeometry x="490" y="370" width="60" height="60" as="geometry" />
        </mxCell>
        <mxCell id="SwI8XjTKnVOE_scIcT7k-16" value="&lt;b&gt;Route tables&lt;/b&gt;" style="rounded=1;whiteSpace=wrap;html=1;" vertex="1" parent="1">
          <mxGeometry x="580" y="370" width="60" height="60" as="geometry" />
        </mxCell>
        <mxCell id="SwI8XjTKnVOE_scIcT7k-17" value="&lt;b&gt;Patient Deployment&lt;/b&gt;" style="rounded=1;whiteSpace=wrap;html=1;" vertex="1" parent="1">
          <mxGeometry x="250" y="480" width="120" height="60" as="geometry" />
        </mxCell>
        <mxCell id="SwI8XjTKnVOE_scIcT7k-18" value="&lt;b&gt;Appointment Deployment&lt;/b&gt;" style="rounded=1;whiteSpace=wrap;html=1;" vertex="1" parent="1">
          <mxGeometry x="390" y="480" width="120" height="60" as="geometry" />
        </mxCell>
        <mxCell id="SwI8XjTKnVOE_scIcT7k-20" value="&lt;b&gt;Prometheus&lt;/b&gt;" style="rounded=1;whiteSpace=wrap;html=1;" vertex="1" parent="1">
          <mxGeometry x="530" y="480" width="120" height="60" as="geometry" />
        </mxCell>
        <mxCell id="SwI8XjTKnVOE_scIcT7k-21" value="&lt;b&gt;Grafana&lt;/b&gt;" style="rounded=1;whiteSpace=wrap;html=1;" vertex="1" parent="1">
          <mxGeometry x="680" y="480" width="120" height="60" as="geometry" />
        </mxCell>
        <mxCell id="SwI8XjTKnVOE_scIcT7k-22" value="&lt;b&gt;Patient Service&lt;/b&gt;" style="rounded=1;whiteSpace=wrap;html=1;" vertex="1" parent="1">
          <mxGeometry x="160" y="580" width="120" height="60" as="geometry" />
        </mxCell>
        <mxCell id="SwI8XjTKnVOE_scIcT7k-23" value="&lt;b&gt;Appointment Service&lt;/b&gt;" style="rounded=1;whiteSpace=wrap;html=1;" vertex="1" parent="1">
          <mxGeometry x="330" y="580" width="120" height="60" as="geometry" />
        </mxCell>
        <mxCell id="SwI8XjTKnVOE_scIcT7k-27" value="" style="endArrow=none;html=1;rounded=0;entryX=0;entryY=0.5;entryDx=0;entryDy=0;" edge="1" parent="1" target="qYMxIyd04kvtuVdoY1f4-1">
          <mxGeometry width="50" height="50" relative="1" as="geometry">
            <mxPoint x="150" y="140" as="sourcePoint" />
            <mxPoint x="200" y="90" as="targetPoint" />
          </mxGeometry>
        </mxCell>
        <mxCell id="SwI8XjTKnVOE_scIcT7k-28" value="" style="endArrow=none;html=1;rounded=0;" edge="1" parent="1">
          <mxGeometry width="50" height="50" relative="1" as="geometry">
            <mxPoint x="520" y="60" as="sourcePoint" />
            <mxPoint x="610" y="140" as="targetPoint" />
          </mxGeometry>
        </mxCell>
        <mxCell id="SwI8XjTKnVOE_scIcT7k-29" value="" style="endArrow=none;html=1;rounded=0;" edge="1" parent="1">
          <mxGeometry width="50" height="50" relative="1" as="geometry">
            <mxPoint x="50" y="250" as="sourcePoint" />
            <mxPoint x="110" y="180" as="targetPoint" />
          </mxGeometry>
        </mxCell>
        <mxCell id="SwI8XjTKnVOE_scIcT7k-30" value="" style="endArrow=none;html=1;rounded=0;entryX=0.5;entryY=1;entryDx=0;entryDy=0;" edge="1" parent="1" target="SwI8XjTKnVOE_scIcT7k-1">
          <mxGeometry width="50" height="50" relative="1" as="geometry">
            <mxPoint x="195" y="260" as="sourcePoint" />
            <mxPoint x="245" y="210" as="targetPoint" />
          </mxGeometry>
        </mxCell>
        <mxCell id="SwI8XjTKnVOE_scIcT7k-31" value="" style="endArrow=none;html=1;rounded=0;" edge="1" parent="1">
          <mxGeometry width="50" height="50" relative="1" as="geometry">
            <mxPoint x="140" y="350" as="sourcePoint" />
            <mxPoint x="85" y="300" as="targetPoint" />
          </mxGeometry>
        </mxCell>
        <mxCell id="SwI8XjTKnVOE_scIcT7k-32" value="" style="endArrow=none;html=1;rounded=0;" edge="1" parent="1">
          <mxGeometry width="50" height="50" relative="1" as="geometry">
            <mxPoint x="170" y="350" as="sourcePoint" />
            <mxPoint x="220" y="300" as="targetPoint" />
          </mxGeometry>
        </mxCell>
        <mxCell id="SwI8XjTKnVOE_scIcT7k-33" value="" style="endArrow=none;html=1;rounded=0;exitX=0.25;exitY=0;exitDx=0;exitDy=0;" edge="1" parent="1" source="SwI8XjTKnVOE_scIcT7k-12">
          <mxGeometry width="50" height="50" relative="1" as="geometry">
            <mxPoint x="340" y="350" as="sourcePoint" />
            <mxPoint x="390" y="300" as="targetPoint" />
          </mxGeometry>
        </mxCell>
        <mxCell id="SwI8XjTKnVOE_scIcT7k-34" value="" style="endArrow=none;html=1;rounded=0;entryX=0.75;entryY=1;entryDx=0;entryDy=0;" edge="1" parent="1" target="SwI8XjTKnVOE_scIcT7k-7">
          <mxGeometry width="50" height="50" relative="1" as="geometry">
            <mxPoint x="430" y="360" as="sourcePoint" />
            <mxPoint x="440" y="320" as="targetPoint" />
          </mxGeometry>
        </mxCell>
        <mxCell id="SwI8XjTKnVOE_scIcT7k-35" value="" style="endArrow=none;html=1;rounded=0;entryX=1;entryY=0.75;entryDx=0;entryDy=0;" edge="1" parent="1" target="SwI8XjTKnVOE_scIcT7k-7">
          <mxGeometry width="50" height="50" relative="1" as="geometry">
            <mxPoint x="500" y="360" as="sourcePoint" />
            <mxPoint x="430" y="300" as="targetPoint" />
            <Array as="points">
              <mxPoint x="440" y="330" />
            </Array>
          </mxGeometry>
        </mxCell>
        <mxCell id="SwI8XjTKnVOE_scIcT7k-36" value="" style="endArrow=none;html=1;rounded=0;" edge="1" parent="1">
          <mxGeometry width="50" height="50" relative="1" as="geometry">
            <mxPoint x="590" y="370" as="sourcePoint" />
            <mxPoint x="420" y="290" as="targetPoint" />
          </mxGeometry>
        </mxCell>
        <mxCell id="SwI8XjTKnVOE_scIcT7k-38" value="" style="curved=1;endArrow=classic;html=1;rounded=0;entryX=0.75;entryY=0;entryDx=0;entryDy=0;" edge="1" parent="1">
          <mxGeometry width="50" height="50" relative="1" as="geometry">
            <mxPoint x="585" y="270" as="sourcePoint" />
            <mxPoint x="335" y="460" as="targetPoint" />
            <Array as="points">
              <mxPoint x="645" y="270" />
              <mxPoint x="595" y="220" />
            </Array>
          </mxGeometry>
        </mxCell>
        <mxCell id="SwI8XjTKnVOE_scIcT7k-39" value="" style="curved=1;endArrow=classic;html=1;rounded=0;entryX=0.414;entryY=-0.063;entryDx=0;entryDy=0;entryPerimeter=0;" edge="1" parent="1">
          <mxGeometry width="50" height="50" relative="1" as="geometry">
            <mxPoint x="590" y="310" as="sourcePoint" />
            <mxPoint x="734.6799999999998" y="496.22" as="targetPoint" />
            <Array as="points">
              <mxPoint x="640" y="310" />
              <mxPoint x="590" y="260" />
            </Array>
          </mxGeometry>
        </mxCell>
        <mxCell id="SwI8XjTKnVOE_scIcT7k-40" value="" style="endArrow=none;html=1;rounded=0;" edge="1" parent="1">
          <mxGeometry width="50" height="50" relative="1" as="geometry">
            <mxPoint x="400" y="490" as="sourcePoint" />
            <mxPoint x="390" y="440" as="targetPoint" />
          </mxGeometry>
        </mxCell>
        <mxCell id="SwI8XjTKnVOE_scIcT7k-41" value="" style="endArrow=none;html=1;rounded=0;" edge="1" parent="1">
          <mxGeometry width="50" height="50" relative="1" as="geometry">
            <mxPoint x="380" y="350" as="sourcePoint" />
            <mxPoint x="430" y="300" as="targetPoint" />
          </mxGeometry>
        </mxCell>
        <mxCell id="SwI8XjTKnVOE_scIcT7k-42" value="" style="endArrow=none;html=1;rounded=0;exitX=0.864;exitY=0.011;exitDx=0;exitDy=0;exitPerimeter=0;" edge="1" parent="1" source="SwI8XjTKnVOE_scIcT7k-20">
          <mxGeometry width="50" height="50" relative="1" as="geometry">
            <mxPoint x="650" y="470" as="sourcePoint" />
            <mxPoint x="700" y="420" as="targetPoint" />
          </mxGeometry>
        </mxCell>
        <mxCell id="SwI8XjTKnVOE_scIcT7k-44" value="" style="endArrow=none;html=1;rounded=0;" edge="1" parent="1">
          <mxGeometry width="50" height="50" relative="1" as="geometry">
            <mxPoint x="200" y="580" as="sourcePoint" />
            <mxPoint x="250" y="530" as="targetPoint" />
          </mxGeometry>
        </mxCell>
        <mxCell id="SwI8XjTKnVOE_scIcT7k-45" value="" style="endArrow=none;html=1;rounded=0;entryX=0.819;entryY=0.93;entryDx=0;entryDy=0;entryPerimeter=0;exitX=0.25;exitY=0;exitDx=0;exitDy=0;" edge="1" parent="1" source="SwI8XjTKnVOE_scIcT7k-23" target="SwI8XjTKnVOE_scIcT7k-17">
          <mxGeometry width="50" height="50" relative="1" as="geometry">
            <mxPoint x="320" y="600" as="sourcePoint" />
            <mxPoint x="370" y="550" as="targetPoint" />
          </mxGeometry>
        </mxCell>
      </root>
    </mxGraphModel>
  </diagram>
</mxfile>
